# xmcd
#
# Track frame offsets: 
#        150
#        17983
#        39579
#        60874
#        86987
#        105571
#        122226
#        141861
#        164536
#        179818
#        211538
#        233506
#        251201
#
# Disc length: 3676 seconds
#
# Revision: 0
# Processed by: cddbd v1.5.2PL0 Copyright (c) Steve Scherf et al.
# Submitted via: ExactAudioCopy v1.0b4
#
DISCID=b40e5a0d
DTITLE=Corey Dennison Band - Night After Night
DYEAR=2017
DGENRE=Blues
TTITLE0=Hear My Plea
TTITLE1=Misti
TTITLE2=I Get The Shivers
TTITLE3=Better Man
TTITLE4=Phone Keeps Ringing
TTITLE5=Nothing's Too Good (For My Baby)
TTITLE6=Love Ain't Fair
TTITLE7=Are You Serious?
TTITLE8=Nightcreeper 2 (Still Creepin')
TTITLE9=It's So Easy
TTITLE10=Stuck In Chicago
TTITLE11=Troubles Of The World
TTITLE12=Down In Virginia
EXTD=
EXTT0=
EXTT1=
EXTT2=
EXTT3=
EXTT4=
EXTT5=
EXTT6=
EXTT7=
EXTT8=
EXTT9=
EXTT10=
EXTT11=
EXTT12=
PLAYORDER=
